PathFileType	4	(X/Y/Z)	Patient4_TMGait_0pt7_01_right_20.trc.trc
DataRate	CameraRate	NumFrames	NumMarkers	Units	OrigDataRate	OrigDataStartFrame	OrigNumFrames
88.050314465409	88.050314465409	5	33	mm	88.050314465409	71	       141
Frame#	Time	Sacral			L.Shoulder			Chest			R.Shoulder			Neck			R.ASIS			L.ASIS			R.Thigh.Superior			R.Thigh.Lateral			R.Thigh.Inferior			R.Patella			L.Thigh.Superior			L.Thigh.Lateral			L.Thigh.Inferior			L.Patella			L.Shank.Superior			L.Shank.Lateral			L.Shank.Inferior			R.Shank.Superior			R.Shank.Lateral			R.Shank.Inferior			R.Heel			R.Midfoot.Superior			R.Midfoot.Lateral			R.Toe			L.Heel			L.Midfoot.Lateral			L.Midfoot.Superior			L.Toe			L.Elbow			L.Wrist			R.Elbow			R.Wrist			
		X1	Y1	Z1	X2	Y2	Z2	X3	Y3	Z3	X4	Y4	Z4	X5	Y5	Z5	X6	Y6	Z6	X7	Y7	Z7	X8	Y8	Z8	X9	Y9	Z9	X10	Y10	Z10	X11	Y11	Z11	X12	Y12	Z12	X13	Y13	Z13	X14	Y14	Z14	X15	Y15	Z15	X16	Y16	Z16	X17	Y17	Z17	X18	Y18	Z18	X19	Y19	Z19	X20	Y20	Z20	X21	Y21	Z21	X22	Y22	Z22	X23	Y23	Z23	X24	Y24	Z24	X25	Y25	Z25	X26	Y26	Z26	X27	Y27	Z27	X28	Y28	Z28	X29	Y29	Z29	X30	Y30	Z30	X31	Y31	Z31	X32	Y32	Z32	X33	Y33	Z33	

71	23.205000000000	864.488246937139	1003.880353890143	501.372774412038	1032.071383085369	1416.709109812696	286.987689446254	1158.976014352406	1340.730711340256	426.671952737249	1118.651318663968	1426.564394099385	608.828272275209	1072.065442524961	1478.958504092649	436.121428786820	1099.092231042167	931.727266957512	587.700496857024	1052.278268566104	946.505710880110	315.034971026114	1095.153347620162	720.020052670583	560.251014983742	995.701374848460	625.562933023854	627.954568639569	1049.556053140633	561.484713859403	542.328241192684	1030.309662024275	475.316751619654	546.434644271247	1129.719209312571	771.240158214316	341.129157001951	1077.082699773147	638.660739081221	270.552522662584	1186.379841487401	583.513663618804	323.332510126211	1214.647855382907	521.294913982941	321.195742810180	1201.919408852787	448.774270441820	312.626705218066	1141.269533190868	314.512679035018	268.097006377810	1238.445690526249	222.476646874193	317.604006112357	991.340963561507	390.852311267413	555.343593451120	910.416889138794	296.922889804501	622.026709307852	931.680131649608	198.876591213942	554.267486006829	777.001757504631	42.694768368473	529.924428241481	949.818069665281	95.750813446692	559.415418417392	862.314274921398	36.464366166206	601.399293539673	1070.331318643039	42.122508300151	584.890583112287	1169.483172015794	42.273682270215	363.898884332351	1238.295183728756	46.574293275880	279.296691339698	1307.378971458945	125.846313627453	293.922941051683	1440.312110298154	98.675424529362	260.740718592965	851.256477813026	1111.537769151189	211.969213957336	779.974319883682	863.246839844620	216.456554995448	1286.014762859560	1135.373849666611	708.144237174556	1482.743876142013	1224.053129232428	577.812545949752	
72	23.216357142857	866.245008861069	1002.151646032484	498.404668413027	1032.433201677385	1415.253623174664	284.279027186937	1159.326107092838	1340.028261085374	424.337348985841	1117.939405026813	1425.801474000311	606.260402055738	1071.576765050233	1477.761795970660	433.561204645983	1100.295457797324	930.334543664003	586.005063061144	1055.047558338730	944.609455610442	313.188232543961	1095.389872331085	718.177082608902	559.273267874628	994.600756432058	624.326456850336	626.402475518459	1048.587478532682	559.596826172839	541.313243469910	1028.596807189482	472.901184794202	545.274387479678	1132.737410475827	769.041839047054	340.029186601352	1078.650292555499	636.226371685897	270.676256825507	1187.871153370699	581.106333685993	323.431732965508	1214.892973980581	517.682458325669	322.216039894136	1201.249228070255	444.762538334160	313.572464692465	1138.015373560064	311.591021355854	269.438156205212	1233.049481337039	217.898194582250	319.664904727816	988.112371813586	389.074787567083	554.165953328568	905.777997142381	296.523170381241	621.209539305867	925.405642288214	198.041356582691	553.694248001743	768.999107252377	42.840457803721	529.920211610929	941.940444705210	95.695603822815	559.300862662287	854.340464656947	36.485235369140	601.405962772946	1062.402697655032	41.776769829497	585.020170455720	1159.831319453044	40.542460549105	366.496417259746	1228.021858233873	43.338709930329	281.215336599801	1299.806800988905	119.744500294631	296.304029332882	1431.659283649487	88.307703869404	261.648830362454	849.174873461596	1112.111006759959	209.880430331370	776.384327547067	864.142949510017	215.792956262559	1287.813590057514	1136.122250151847	704.069594970343	1477.378871605753	1235.058315983288	571.805499253739	
73	23.227714285714	867.941202362919	1000.360914455917	495.251359409665	1032.937199121433	1413.721549800211	281.419686357819	1159.725534011929	1339.273492769684	421.957386407929	1117.158076109436	1425.037423886102	603.617786722821	1071.149432314186	1476.541239759999	430.835249372163	1101.459909993271	928.866612173662	584.281992302120	1057.917595816009	942.766635484070	311.360039202316	1096.027287575495	716.345188293784	558.199345335112	994.127152715571	622.912627081928	624.635517657395	1048.440254338589	557.624136801435	540.091514189277	1027.846054754197	470.164792500906	543.980984477270	1135.971907473158	766.925243281454	339.097892520606	1080.707493558447	634.202971477998	270.519826201282	1189.635984955107	578.941003502959	323.646949124676	1215.287318722279	514.234101222732	323.241852450710	1200.743612515845	440.973838211777	314.352088370513	1135.016887841089	309.010299308258	270.189658614192	1227.597760397778	213.563104351149	321.423902051589	985.541671019767	387.091918244046	552.814171438033	901.612284569536	296.163387524829	620.249962133907	919.410781554418	197.218281333086	553.058033302728	761.004072217448	43.273419755462	529.941484466290	934.175663685055	95.673678202591	559.186682400589	846.400142334199	36.646926052358	601.437245810798	1054.522636100911	41.386282894954	585.156116680698	1149.706961816816	39.159835685708	368.433342961132	1217.505839583843	40.500763949686	282.676291270387	1291.977883407445	113.938118775317	298.526598642311	1422.779175252814	78.174495437910	262.777936790977	847.689456673609	1112.234800977336	207.736566497765	773.799269401566	864.469282729388	214.986488285456	1289.165243401741	1136.566970326177	700.222864116459	1471.547764804248	1244.695924428092	566.226216072663	
74	23.239071428571	869.512763715298	998.600523736704	491.965145513109	1033.589712291753	1412.187266967356	278.433620133207	1160.172734478754	1338.518329651921	419.548107750318	1116.352782184545	1424.344643185917	600.911859924343	1070.824568678984	1475.367598873450	427.951012790383	1102.542474345654	927.397683109578	582.509941190799	1060.781445021670	941.100617875306	309.538324283339	1097.069125623191	714.602925525137	556.967341947110	994.362721375883	621.363030188533	622.640888391429	1049.199030021554	555.626395799139	538.635951076092	1028.176003702052	467.150812556532	542.584230548684	1139.307164307985	765.050658412705	338.302578826638	1083.212997419965	632.723604745113	270.019393215567	1191.644998048760	577.172351496383	323.877781179851	1215.870063369559	511.174353907404	324.123687203688	1200.474090322571	437.618048612202	314.873141295441	1132.458795676968	306.920750437680	270.286312611629	1222.348957396706	209.717280745923	322.793824618916	983.725134604844	384.966008109827	551.324786994467	897.989999133385	295.947447584974	619.158308552367	913.772025424667	196.504754644225	552.390004300467	753.051565345165	44.173536564900	529.998944727514	926.597178630328	95.713426844715	559.095486818459	838.518633018912	37.040406015141	601.497112085569	1046.702100949963	40.956852519109	585.286187595465	1139.610131295609	38.183855553778	369.733000536144	1207.209268713835	38.209959567005	283.674775802142	1284.176434881873	108.796681570819	300.459953322444	1414.001450713485	68.963571853963	263.966982705065	846.902846219953	1111.890394682465	205.530350111974	772.244898679282	864.234298645488	214.002480766388	1289.996370165793	1136.692462407891	696.643738866396	1465.351271068955	1252.927323144566	561.090876398342	
75	23.250428571429	870.907604157313	996.968578216126	488.596690209803	1034.386963249687	1410.733883617453	275.353952317474	1160.661754839972	1337.821650130311	417.128420561950	1115.570349642877	1423.798756733509	598.157545946123	1070.634498538728	1474.315741456640	424.930695336569	1103.501423331215	926.014878270591	580.663528846255	1063.537852102878	939.727784472814	307.693220615900	1098.502824216106	713.039634829941	555.516926074631	995.374874236179	619.736567898733	620.425370311918	1050.934226495927	553.678478720718	536.942693251373	1029.689103978813	463.931146160862	541.144168464449	1142.625339571218	763.574039937488	337.576814581193	1086.093376356985	631.872416251028	269.137608514048	1193.842110541600	575.914821035589	324.012233288738	1216.656094556696	508.671705154697	324.725598952466	1200.464648375141	434.833814611322	315.076439133887	1130.413422734247	305.418506358191	269.726449865647	1217.429766385558	206.517118358019	323.734009886900	982.765990010139	382.783090854908	549.765196010747	894.987089295588	295.999899822344	617.960243062466	908.582143732267	196.017037172696	551.735507883395	745.199133517675	45.752919148619	530.099830166284	919.293287052286	95.848282744840	559.053667068991	830.731258211641	37.777279509312	601.585924660276	1038.947536424723	40.497215158905	585.396572112722	1129.873392583760	37.607468273866	370.465436163359	1197.417232435436	36.526871458460	284.244259805139	1276.546077775875	104.570621980541	302.011534812289	1405.509613436823	61.190506901032	265.066654757242	846.905977298133	1111.080425665721	203.249268665680	771.770517775891	863.457502973373	212.805102247566	1290.218109698515	1136.488720654929	693.370680707348	1458.872894404112	1259.723465202885	556.411239266579	
